<?xml version="1.0" encoding="UTF-8" standalone="no"?>
<!-- Created with Inkscape (http://www.inkscape.org/) -->

<svg
   version="1.1"
   id="svg1"
   width="1181"
   height="1181"
   viewBox="0 0 1181 1181"
   sodipodi:docname="cut.svg"
   inkscape:version="1.4.3 (0d15f75, 2025-12-25)"
   xmlns:inkscape="http://www.inkscape.org/namespaces/inkscape"
   xmlns:sodipodi="http://sodipodi.sourceforge.net/DTD/sodipodi-0.dtd"
   xmlns="http://www.w3.org/2000/svg"
   xmlns:svg="http://www.w3.org/2000/svg">
  <defs
     id="defs1" />
  <sodipodi:namedview
     id="namedview1"
     pagecolor="#ffffff"
     bordercolor="#000000"
     borderopacity="0.25"
     inkscape:showpageshadow="2"
     inkscape:pageopacity="0.0"
     inkscape:pagecheckerboard="0"
     inkscape:deskcolor="#d1d1d1"
     inkscape:zoom="0.49874678"
     inkscape:cx="281.70608"
     inkscape:cy="532.33426"
     inkscape:window-width="1920"
     inkscape:window-height="1051"
     inkscape:window-x="-9"
     inkscape:window-y="-9"
     inkscape:window-maximized="1"
     inkscape:current-layer="g1" />
  <g
     inkscape:groupmode="layer"
     inkscape:label="Image"
     id="g1">
    <path
       style="fill:#000000"
       d="m 569,1106.4165 c -1.375,-0.2326 -5.875,-0.9025 -10,-1.4889 -43.03875,-6.1177 -91.97403,-29.4437 -135,-64.3503 -14.09276,-11.4334 -36.34219,-32.2133 -46,-42.96188 -8.16186,-9.08366 -10.4801,-10.69125 -12.55,-8.7028 -1.70032,1.63341 -125.40075,72.77858 -139.04727,79.97168 -10.35207,5.4567 -20.58221,3.4789 -25.28484,-4.8883 -4.09917,-7.2935 -2.19518,-15.3557 5.01198,-21.2227 2.40357,-1.9566 24.62013,-17.1675 49.37013,-33.8019 24.75,-16.6344 53.6625,-36.07656 64.25,-43.20478 10.5875,-7.12823 19.25,-13.39118 19.25,-13.91767 0,-0.52648 -3.73055,-6.22038 -8.29011,-12.6531 -9.11494,-12.85953 -18.72469,-27.43337 -25.79411,-39.11853 -3.27003,-5.40508 -5.08317,-7.48817 -6.32469,-7.26633 -0.95726,0.17104 -22.96936,4.28281 -48.91578,9.13726 -86.26473,16.13972 -111.10804,20.38075 -115.05252,19.64076 -14.41516,-2.7043 -17.03616,-23.79486 -3.78858,-30.48575 2.01619,-1.0183 32.69079,-9.593 68.16579,-19.05488 76.96065,-20.52692 78.1299,-20.84495 78.68738,-21.40243 0.24058,-0.24058 -1.63383,-4.56152 -4.16535,-9.60208 C 252.04508,798.28071 230.46068,736.84068 219.58077,687.5 c -7.90242,-35.83765 -11.58598,-65.85153 -12.3014,-100.23243 -0.48159,-23.14432 0.63149,-50.72113 2.27308,-56.3159 0.35773,-1.21916 -2.04442,-2.24401 -11.29907,-4.82064 C 158.46814,515.05422 125.41479,495.50983 96.089714,465.72182 83.34577,452.77669 76.595183,444.56038 67.061791,430.39119 48.798146,403.2465 36.738342,373.29756 30.86451,340.5 28.832361,329.15314 28.533986,324.2573 28.518147,302 28.498349,274.17993 29.445132,265.66016 35.001336,243.66003 46.461853,198.28141 72.600691,157.06013 109.5,126.1747 148.41781,93.599744 200.392,75 252.5,75 c 76.57869,0 147.0451,37.83856 188.58085,101.26283 7.59589,11.59877 17.93818,31.48173 21.44986,41.23717 0.98992,2.75 2.10728,5.3593 2.48302,5.79845 0.37575,0.43915 3.71235,-0.34173 7.41469,-1.73529 18.5481,-6.98148 53.34557,-15.05116 78.60706,-18.22929 16.45727,-2.07049 62.29929,-2.38442 77.46452,-0.53049 26.57551,3.24882 56.65084,9.84057 78.20508,17.14058 6.47132,2.19171 12.06571,3.66343 12.43197,3.27048 0.36626,-0.39294 2.31827,-4.76444 4.3378,-9.71444 C 748.61062,151.89043 802.34472,103.2008 865.78677,84.548098 891.13232,77.096211 912.50474,74.404487 939,75.327344 c 34.9205,1.216317 60.88644,7.636632 91.5,22.624209 37.651,18.432907 65.5425,42.896197 88.467,77.593157 18.2404,27.60739 29.7612,58.69791 35.1863,94.95529 2.0451,13.6676 1.7598,51.18223 -0.4943,65 -11.0659,67.83467 -46.6499,123.5791 -102.8578,161.13283 -18.9589,12.66684 -45.1083,24.41412 -66.33721,29.80108 -5.3296,1.35242 -9.86142,2.63019 -10.07072,2.83949 -0.2093,0.2093 0.14789,4.17091 0.79376,8.80357 1.89207,13.57146 1.56712,67.41192 -0.51556,85.42303 -8.30525,71.82388 -29.44561,144.3426 -62.0667,212.91016 -3.63978,7.65059 -6.49885,14.02909 -6.35349,14.17445 0.2913,0.29131 92.81493,25.27025 123.74872,33.40889 10.9074,2.86972 21.4132,6.24704 23.8419,7.66446 11.014,6.42808 10.556,22.35629 -0.8079,28.09204 -2.4518,1.2375 -5.7508,2.25 -7.3312,2.25 -3.0367,0 -72.50192,-12.59385 -128.58938,-23.31288 l -33.38657,-6.3806 -3.11343,5.09255 c -4.4947,7.3519 -27.63914,42.09267 -32.50694,48.79429 l -4.13544,5.69337 15.26448,10.4047 c 8.39546,5.72259 35.96448,24.34184 61.26448,41.37607 68.02492,45.8006 64,42.5095 64,52.3325 0,6.5598 -1.81152,9.8854 -7.48983,13.75 -4.35087,2.9612 -11.56906,3.0156 -17.30001,0.1305 -7.06519,-3.5569 -106.45273,-60.122 -141.21016,-80.36795 l -3,-1.74747 -21,20.90822 c -47.53688,47.3293 -92.12789,75.6159 -141.6876,89.8807 -21.9796,6.3264 -31.66036,7.6646 -57.8124,7.9915 -12.925,0.1616 -24.625,0.1035 -26,-0.129 z m 51.44527,-50.4137 c 18.80126,-3.6938 40.62454,-11.5777 56.30473,-20.3406 6.92314,-3.8691 7.25,-4.2153 7.25,-7.6795 0,-2.2731 -1.71184,-7.145 -4.58412,-13.0464 -13.91623,-28.59248 -38.51655,-47.60569 -69.91588,-54.03697 -8.53043,-1.74722 -27.43731,-1.4604 -36.90795,0.5599 -19.50431,4.1607 -39.16676,15.37596 -52.01966,29.67148 -10.41872,11.58809 -19.49386,28.57139 -19.54534,36.57709 -0.0254,3.9558 0.24957,4.37 4.591,6.9143 18.27062,10.7072 49.2106,20.8628 72.38195,23.7581 8.21666,1.0267 31.85922,-0.2975 42.44527,-2.3774 z M 474.5,661.48358 c 8.89998,-2.38504 23.15792,-9.67174 30.22491,-15.44683 12.71335,-10.38925 23.14843,-27.00534 27.28499,-43.44671 2.72808,-10.84317 2.71938,-27.40039 -0.02,-38.18008 -7.21384,-28.38645 -28.91429,-50.49291 -57.48985,-58.56548 -11.46829,-3.23978 -29.74384,-3.2534 -41,-0.0306 C 410.87106,512.293 392.73231,527.11985 382.50239,547.5 375.82262,560.80751 374.5,566.84018 374.5,584 c 0,12.41962 0.33631,15.571 2.34401,21.96476 9.14417,29.12056 31.61332,49.89734 61.15599,56.54973 8.12954,1.83061 27.90641,1.27203 36.5,-1.03091 z m 276,0.005 c 8.91217,-2.39608 23.16462,-9.68245 30.22491,-15.45207 11.79665,-9.64013 21.41028,-24.09963 26.28664,-39.53675 2.99183,-9.47126 3.8157,-29.00495 1.65242,-39.1781 -3.13874,-14.76043 -9.29551,-26.41644 -20.08888,-38.03231 -10.69586,-11.51094 -23.80865,-19.52988 -38.43156,-23.50229 -10.73928,-2.91739 -29.56087,-2.91363 -40.31854,0.008 -22.5382,6.12118 -41.86198,21.98974 -51.79507,42.53378 C 651.77522,561.26538 650.5,567.30638 650.5,584 c 0,12.4134 0.33752,15.57928 2.34544,22 9.20877,29.44682 30.92916,49.71127 60.65456,56.58882 7.65493,1.77112 28.64166,1.14719 37,-1.1 z"
       id="path1" />
  </g>
</svg>
